<svg id="Capa_1" enable-background="new 0 0 512 512" height="512" viewBox="0 0 512 512" width="512" xmlns="http://www.w3.org/2000/svg"><g><path d="m444.5 504.5h-90l-60-248.5 60-248.5h90c16.569 0 30 13.431 30 30v437c0 16.569-13.431 30-30 30z" fill="#4e4cd3"/><path d="m444.5 474.5h-30l-60-218.5 60-218.5h30z" fill="#c4f3ff"/><path d="m444.5 157.5h-60v120h60v-60c16.569 0 30-13.431 30-30s-13.431-30-30-30z" fill="#05ff77"/><path d="m414.5 474.5h-30l-60-218.5 60-218.5h30z" fill="#fff"/><path d="m67.5 504.5h30l60-248.5-60-248.5h-30c-16.569 0-30 13.431-30 30v437c0 16.569 13.431 30 30 30z" fill="#22aef4"/><path d="m414.5 67.5h-60v120h60v-60c16.569 0 30-13.431 30-30s-13.431-30-30-30z" fill="#ff545a"/><path d="m354.5 7.5h-30v497h30c16.569 0 30-13.431 30-30v-437c0-16.569-13.431-30-30-30z" fill="#3f6dde"/><path d="m354.5 474.5v-437c0-16.569-13.431-30-30-30h-227v497h227c16.569 0 30-13.431 30-30z" fill="#318de9"/><path d="m444.5 0h-377c-20.678 0-37.5 16.822-37.5 37.5v437c0 20.678 16.822 37.5 37.5 37.5h30c4.143 0 7.5-3.358 7.5-7.5v-489.5h249.5c12.406 0 22.5 10.093 22.5 22.5v437c0 12.407-10.094 22.5-22.5 22.5h-227c-4.143 0-7.5 3.358-7.5 7.5s3.357 7.5 7.5 7.5h317c20.678 0 37.5-16.822 37.5-37.5v-437c0-20.678-16.822-37.5-37.5-37.5zm-354.5 497h-22.5c-12.406 0-22.5-10.093-22.5-22.5v-437c0-12.407 10.094-22.5 22.5-22.5h22.5zm354.5-482c12.406 0 22.5 10.093 22.5 22.5v120.02c-4.363-3.282-9.461-5.637-15-6.766v-113.254c0-4.142-3.357-7.5-7.5-7.5h-53.255c-1.129-5.539-3.483-10.637-6.766-15zm-52.5 30h15v15h-15zm30 105v-15.753c5.541-1.129 10.636-3.49 15-6.775v22.528zm15-82.48c-4.363-3.282-9.461-5.637-15-6.766v-15.754h15zm-45 7.48h22.5c12.406 0 22.5 10.093 22.5 22.5s-10.094 22.5-22.5 22.5c-4.143 0-7.5 3.358-7.5 7.5v52.5h-15zm0 120h15v272h-15zm30 90h15v182h-15zm15-67.5v52.5h-15v-105h22.5c12.406 0 22.5 10.093 22.5 22.5s-10.094 22.5-22.5 22.5c-4.143 0-7.5 3.358-7.5 7.5zm7.5 279.5h-60.02c3.282-4.363 5.637-9.461 6.766-15h53.254c4.143 0 7.5-3.358 7.5-7.5v-250.253c5.541-1.129 10.636-3.49 15-6.775v257.028c0 12.407-10.094 22.5-22.5 22.5z"/></g></svg>