<?xml version="1.0" encoding="iso-8859-1"?>
<!-- Generator: Adobe Illustrator 19.0.0, SVG Export Plug-In . SVG Version: 6.00 Build 0)  -->
<svg version="1.1" id="Capa_1" xmlns="http://www.w3.org/2000/svg" xmlns:xlink="http://www.w3.org/1999/xlink" x="0px" y="0px"
	 viewBox="0 0 511.999 511.999" style="enable-background:new 0 0 511.999 511.999;" xml:space="preserve">
<g>
	<path style="fill:#4F8AE0;" d="M341.313,235.466c-1.484,6.513-2.924,13.575-0.192,19.671c15.186-0.454,29.57-6.897,42.654-14.623
		c13.082-7.726,25.361-16.855,39.002-23.547c20.718-10.162,61.84-24.881,64.076-51.563c0.593-7.067-1.218-14.107-3.359-20.868
		c-7.597-23.973-19.509-46.282-32.587-67.665c-6.509-10.642-13.325-21.093-20.157-31.531c-4.452-6.803-7.722-10.577-13.394-15.826
		c-4.448-4.116-6.46-10.277-10.885-14.465c-2.316-2.192-5.145-3.749-7.94-5.283c-1.16-0.636-2.479-1.292-3.746-0.917
		c-1.647,0.487-2.324,2.406-2.763,4.066c-5.71,21.639-9.818,43.145-14.739,64.732c-2.688,11.79-5.375,23.579-8.062,35.369
		c-2.249,9.864-7.329,22.078-7.329,32.155C355.034,175.27,348.173,205.368,341.313,235.466z"/>
	<path style="fill:#4F8AE0;" d="M169.8,254.648c4.146,5.366,3.183,12.947,1.984,19.622
		c-12.811,71.324-29.276,141.991-49.309,211.633c-1.164,4.044-2.34,8.087-3.515,12.128c-0.741,2.547-1.875,5.491-4.445,6.143
		c-2.982,0.755-5.553-2.086-7.3-4.618c-21.137-30.648-38.765-63.546-56.344-96.365c-3.454-6.449-6.909-12.897-10.362-19.347
		c-6.426-11.995-13.166-25.023-13.866-38.888c-0.787-15.59,7.7-18.351,19.714-25.992c24.906-15.839,50.68-30.313,77.166-43.339
		C138.723,268.151,154.159,261.153,169.8,254.648z"/>
</g>
<g>
	<path style="fill:#75B6FC;" d="M213.87,175.749c45.293-11.659,94.635-12.62,137.706,5.609
		c7.956-35.197,15.273-70.538,21.949-106.001c-20.96-15.856-47.393-22.376-73.241-27.132c-40.624-7.475-82.138-11.533-123.288-7.919
		C135.85,43.92,94.96,55.451,59.974,77.409c-14.475,9.083-30.729,17.636-38.968,32.948c-1.747,3.246-3.297,6.786-3.103,10.467
		c0.183,3.438,1.862,6.596,3.504,9.622c6.359,11.722,9.978,24.503,15.206,36.704c5.19,12.112,13.15,24.033,20.226,35.256
		c4.85,7.69,9.976,15.199,15.101,22.708c2.032,2.975,4.174,6.055,7.313,7.823c9.828,5.533,22.231-9.89,30.038-14.023
		c15.599-8.259,31.404-16.151,47.596-23.188C175.367,187.699,194.351,180.774,213.87,175.749z"/>
	<path style="fill:#75B6FC;" d="M297.331,338.885c44.585-12.439,85.21-35.978,124.143-61.01c1.043-0.669,2.156-1.363,3.394-1.38
		c1.737-0.022,3.179,1.273,4.397,2.512c10.848,11.016,19.268,23.931,25.523,38.034c6.014,13.558,14.958,24.467,22.112,37.316
		c3.602,6.47,6.49,13.269,10.276,19.647c2.826,4.76,7.225,9.809,7.794,15.538c1.145,11.525-11.293,23.49-19.099,30.495
		c-19.675,17.656-45.433,26.845-69.992,35.406c-17.698,6.17-35.462,12.357-53.828,16.097c-45.419,9.248-92.468,3.174-138.128-4.799
		c-13.602-2.375-27.292-4.951-40.046-10.243c-11.852-4.917-22.62-12.069-33.305-19.174c-0.646-0.431-1.321-0.891-1.672-1.584
		c-0.483-0.953-0.242-2.096,0.011-3.133c4.005-16.476,8.011-32.952,12.016-49.427c2.003-8.238,4.005-16.475,6.008-24.713
		c1.162-4.781,2.225-20.332,5.958-23.416c3.863-3.19,13.477,2.939,18.016,4.398c7.16,2.302,14.482,4.086,21.886,5.395
		c14.912,2.635,30.141,3.316,45.247,2.423C264.847,346.27,281.046,342.956,297.331,338.885z"/>
</g>
<g>
	<path style="fill:#231F20;" d="M49.742,197.634c6.964,13.163,14.101,26.238,21.356,39.242c3.265,5.85,7.321,12.033,15.217,10.075
		c6.01-1.491,11.292-7.479,16.156-11.113c20.969-15.661,44.18-28.662,68.285-38.823c27.575-11.623,56.782-19.167,86.527-22.47
		c14.836-1.647,30.305-2.631,45.177-0.816c13.728,1.674,27.464,6.211,39.882,12.421c-1.764,6.938-3.526,13.876-5.29,20.813
		c-3.242,12.753-7.679,25.878-9.18,38.974c-1.285,11.202,7.094,21.647,19.05,18.915c4.778-1.092,8.712-4.226,13.002-6.425
		c6.194-3.175,12.381-6.367,18.561-9.57c23.1-11.974,46.281-23.825,68.839-36.804c10.88-6.26,22.418-12.202,32.724-19.367
		c9.879-6.869,13.89-17.239,13.537-29.09c-0.373-12.554-4.785-24.352-9.746-35.723c-4.978-11.404-10.578-22.547-16.299-33.593
		c-8.574-16.556-17.623-32.877-27.434-48.733c-8.105-13.096-16.124-29.603-27.732-39.857c-3.756-3.318-8.501-6.017-13.502-5.657
		c-7.657,0.551-13.062,7.986-15.218,15.354c-5.368,18.346-8.502,38.15-12.154,56.936c-8.983-7.166-18.523-13.64-28.863-18.707
		c-12.048-5.905-25.185-10.037-38.059-13.711c-27.448-7.832-56.429-11.575-84.939-12.319
		c-54.283-1.417-110.928,9.519-157.474,38.516c-11.164,6.954-21.684,14.945-31.486,23.713c-8.335,7.457-20.825,17.351-19.64,29.728
		c0.585,6.108,3.696,11.44,6.511,16.766c3.828,7.244,7.54,14.543,11.307,21.818C35.703,171.355,42.776,184.467,49.742,197.634z
		 M375.74,104.461c6.085-20.343,10.36-41.023,14.809-61.813c1.109-5.185,2.28-10.357,3.429-15.534
		c0.351-1.578,2.166-11.095,3.799-11.111c0.721-0.008,5.078,8.102,5.981,9.446c3.163,4.719,6.283,9.469,9.351,14.252
		c11.699,18.241,23.189,36.631,33.821,55.519c5.4,9.593,10.613,19.293,15.622,29.096c4.994,9.774,10.401,19.466,13.356,30.102
		c2.438,8.774,4.489,21.975-3.629,28.31c-8.351,6.514-17.9,11.751-27.057,17.019c-19.684,11.324-39.781,22.071-60.206,32
		c-10.236,4.976-20.512,9.873-30.791,14.76c-2.128,1.012-4.22,2.023-6.553,2.487c-1.182,0.235-2.399-0.077-2.583,0.449
		c-0.538-3.569,2.443-10.724,3.019-13.163c5.369-22.798,10.18-45.77,15.017-68.688C367.552,146.604,371.64,125.531,375.74,104.461z
		 M39.066,102.239c40.658-29.843,89.765-47.69,139.919-53.654c33.219-3.95,66.943-2.814,99.958,2.404
		c16.544,2.615,32.924,6.254,49.043,10.799c4.376,1.234,43.404,13.39,42.822,15.712c-7.773,31.02-16.018,61.922-24.733,92.691
		c-31.787-11.85-66.917-11.437-100.476-6.473c-57.519,8.509-113.259,30.185-160.385,64.244
		c-21.966-32.612-42.261-66.348-60.778-101.033c-1.186-2.22-2.396-4.578-2.3-7.093c0.152-3.946,3.397-6.99,6.457-9.487
		C32.016,107.553,35.508,104.851,39.066,102.239z"/>
	<path style="fill:#231F20;" d="M500.962,392.543c-0.585-6.108-3.696-11.44-6.511-16.766c-3.828-7.244-7.54-14.543-11.306-21.818
		c-6.85-13.229-13.924-26.341-20.89-39.507c-6.963-13.163-14.1-26.238-21.355-39.242c-3.265-5.85-7.321-12.033-15.217-10.075
		c-6.01,1.491-11.292,7.479-16.156,11.113c-20.97,15.661-44.18,28.662-68.285,38.823c-27.576,11.623-56.781,19.167-86.527,22.47
		c-14.836,1.647-30.305,2.631-45.177,0.816c-13.728-1.674-27.464-6.211-39.883-12.421c1.764-6.938,3.527-13.876,5.291-20.813
		c3.241-12.753,7.679-25.878,9.18-38.974c1.286-11.202-7.094-21.647-19.05-18.915c-4.778,1.092-8.712,4.226-13.002,6.425
		c-6.194,3.175-12.382,6.367-18.561,9.57c-23.1,11.974-46.281,23.825-68.839,36.804c-10.88,6.26-22.418,12.202-32.724,19.367
		c-9.879,6.87-13.89,17.239-13.538,29.09c0.374,12.554,4.785,24.352,9.747,35.723c4.977,11.404,10.578,22.547,16.3,33.593
		c11.764,22.717,24.438,44.993,38.706,66.235c6.436,9.581,13.886,25.261,26.399,27.641c13.409,2.551,17.946-10.828,20.143-21.134
		c3.611-16.937,7.49-33.809,10.791-50.787c8.984,7.166,18.524,13.64,28.863,18.707c12.048,5.905,25.185,10.037,38.059,13.711
		c27.448,7.832,56.429,11.575,84.939,12.319c54.282,1.417,110.928-9.519,157.474-38.515c11.164-6.955,21.684-14.944,31.485-23.713
		C489.657,414.813,502.148,404.919,500.962,392.543z M135.446,407.444c-6.625,29.765-13.4,59.495-20.327,89.191
		c-19.982-28.641-38.074-58.561-55.214-88.988c-9.003-15.981-17.798-32.227-23.423-49.686c-2.582-8.017-4.354-17.241-0.062-24.487
		c2.734-4.614,7.484-7.6,12.076-10.371c19.476-11.753,39.343-22.857,59.557-33.286c10.347-5.338,20.799-10.461,31.305-15.48
		c3.497-1.671,26.711-9.962,27.068-11.711C156.497,310.982,146.17,359.257,135.446,407.444z M472.963,409.888
		c-44.919,32.641-99.751,51.01-155.209,55.144c-60.114,4.481-120.872-7.275-176.736-29.922
		c7.861-31.184,16.153-62.261,24.873-93.216c30.442,11.346,64.013,11.43,96.213,7.122c55.209-7.387,108.426-27.368,154.902-58.03
		c2.183-1.438,4.344-2.902,6.49-4.391c0.739-0.513,2.049-1.767,3.337-2.767c1.197,1.835,2.29,3.833,3.339,5.409
		c2.48,3.721,4.945,7.452,7.378,11.205c17.698,27.316,34.219,55.332,49.633,84.001c1.613,3.001,3.265,6.344,2.521,9.667
		c-0.684,3.051-3.219,5.288-5.647,7.258C480.433,404.308,476.734,407.149,472.963,409.888z"/>
</g>
<g>
</g>
<g>
</g>
<g>
</g>
<g>
</g>
<g>
</g>
<g>
</g>
<g>
</g>
<g>
</g>
<g>
</g>
<g>
</g>
<g>
</g>
<g>
</g>
<g>
</g>
<g>
</g>
<g>
</g>
</svg>
